HIERARCHY
ROOT Hips
{
	OFFSET -0.001795 -0.223333 0.028219
	CHANNELS 6 Xposition Yposition Zposition Zrotation Yrotation Xrotation 
	JOINT LeftUpLeg
	{
		OFFSET 0.069520 -0.091406 -0.006815
		CHANNELS 3 Zrotation Yrotation Xrotation
		JOINT LeftLeg
		{
			OFFSET 0.034277 -0.375199 -0.004496
			CHANNELS 3 Zrotation Yrotation Xrotation
			JOINT LeftFoot
			{
				OFFSET -0.013596 -0.397961 -0.043693
				CHANNELS 3 Zrotation Yrotation Xrotation
				JOINT LeftToe
				{
					OFFSET 0.026358 -0.055791 0.119288
					CHANNELS 3 Zrotation Yrotation Xrotation
					End Site
					{
						OFFSET 0.000000 0.000000 0.000000
					}
				}
			}
		}
	}
	JOINT RightUpLeg
	{
		OFFSET -0.067670 -0.090522 -0.004320
		CHANNELS 3 Zrotation Yrotation Xrotation
		JOINT RightLeg
		{
			OFFSET -0.038290 -0.382569 -0.008850
			CHANNELS 3 Zrotation Yrotation Xrotation
			JOINT RightFoot
			{
				OFFSET 0.015774 -0.398415 -0.042312
				CHANNELS 3 Zrotation Yrotation Xrotation
				JOINT RightToe
				{
					OFFSET -0.025372 -0.048144 0.123348
					CHANNELS 3 Zrotation Yrotation Xrotation
					End Site
					{
						OFFSET 0.000000 0.000000 0.000000
					}
				}
			}
		}
	}
	JOINT Spine
	{
		OFFSET -0.002533 0.108963 -0.026696
		CHANNELS 3 Zrotation Yrotation Xrotation
		JOINT Spine1
		{
			OFFSET 0.005487 0.135180 0.001092
			CHANNELS 3 Zrotation Yrotation Xrotation
			JOINT Spine2
			{
				OFFSET 0.001457 0.052922 0.025425
				CHANNELS 3 Zrotation Yrotation Xrotation
				JOINT Neck
				{
					OFFSET -0.002778 0.213870 -0.042857
					CHANNELS 3 Zrotation Yrotation Xrotation
					JOINT Head
					{
						OFFSET 0.005152 0.064970 0.051349
						CHANNELS 3 Zrotation Yrotation Xrotation
						End Site
						{
							OFFSET 0.000000 0.000000 0.000000
						}
					}
				}
				JOINT LeftShoulder
				{
					OFFSET 0.078845 0.121749 -0.034090
					CHANNELS 3 Zrotation Yrotation Xrotation
					JOINT LeftArm
					{
						OFFSET 0.090977 0.030469 -0.008868
						CHANNELS 3 Zrotation Yrotation Xrotation
						JOINT LeftForeArm
						{
							OFFSET 0.259612 -0.012772 -0.027456
							CHANNELS 3 Zrotation Yrotation Xrotation
							JOINT LeftHand
							{
								OFFSET 0.249234 0.008986 -0.001171
								CHANNELS 3 Zrotation Yrotation Xrotation
								End Site
								{
									OFFSET 0.000000 0.000000 0.000000
								}
							}
						}
					}
				}
				JOINT RightShoulder
				{
					OFFSET -0.081759 0.118833 -0.038615
					CHANNELS 3 Zrotation Yrotation Xrotation
					JOINT RightArm
					{
						OFFSET -0.096012 0.032551 -0.009143
						CHANNELS 3 Zrotation Yrotation Xrotation
						JOINT RightForeArm
						{
							OFFSET -0.253742 -0.013329 -0.021401
							CHANNELS 3 Zrotation Yrotation Xrotation
							JOINT RightHand
							{
								OFFSET -0.255298 0.007772 -0.005559
								CHANNELS 3 Zrotation Yrotation Xrotation
								End Site
								{
									OFFSET 0.000000 0.000000 0.000000
								}
							}
						}
					}
				}
			}
		}
	}
}
MOTION
Frames: 6
Frame Time: 0.050000
0.000000 0.947548 0.000000 0.578269 3.922040 2.828492 4.716773 -0.004153 2.595820 4.164450 -0.021874 -5.868259 12.244696 23.509242 19.210463 0.000000 0.000000 0.000000 -5.577440 0.134421 -0.465200 0.869041 -0.242829 -4.483042 3.437661 3.154878 10.136999 0.000000 0.000000 0.000000 8.729268 -0.293832 1.030722 -6.660589 2.491411 -18.531123 -2.102541 4.438476 24.447944 11.333622 -5.537739 -18.267226 0.000000 0.000000 0.000000 -19.594713 -11.181447 3.044686 -49.363598 -4.305703 -5.734000 -14.834441 -27.216023 4.507979 0.000000 0.000000 0.000000 27.049028 -1.723515 -0.365533 52.276637 12.706907 -2.496504 10.179585 23.436435 3.263351 0.000000 0.000000 0.000000 
0.000384 0.946095 0.000283 0.577097 4.539146 3.304138 5.270525 -0.056990 2.333752 3.290632 0.064272 -6.509257 11.972154 23.215135 18.633184 0.000000 0.000000 0.000000 -5.821740 0.177585 -1.304580 1.344096 -0.255177 -3.655815 2.997497 2.633107 9.481956 0.000000 0.000000 0.000000 9.455231 -0.151651 -0.495996 -7.141739 2.673900 -17.663167 -2.663105 3.812071 25.223240 11.428437 -5.522455 -18.966543 0.000000 0.000000 0.000000 -19.022620 -10.204913 2.656321 -49.190971 -4.778038 -5.658471 -14.608866 -28.424422 4.684406 0.000000 0.000000 0.000000 26.792729 -1.565556 -0.324398 53.483667 13.501552 -2.160267 9.524703 22.854268 3.043642 0.000000 0.000000 0.000000 
0.000508 0.946642 0.000180 0.718994 4.801570 3.277378 5.291666 -0.066027 2.201638 3.007657 0.067686 -6.325923 11.799502 23.014697 18.556077 0.000000 0.000000 0.000000 -6.209317 0.158635 -0.969769 1.781780 -0.304161 -4.105463 2.975359 2.470424 9.808032 0.000000 0.000000 0.000000 9.478228 -0.093661 -0.986242 -7.276212 2.702200 -18.027601 -2.392924 3.416669 26.499725 10.441618 -5.153202 -17.939610 0.000000 0.000000 0.000000 -19.404297 -10.754482 3.058552 -49.167221 -5.335358 -5.588028 -14.009615 -27.451130 4.406120 0.000000 0.000000 0.000000 26.768641 -1.694304 -0.417089 53.165835 13.566462 -2.299919 9.275439 23.790358 3.164985 0.000000 0.000000 0.000000 
0.000509 0.946662 0.000143 0.709091 5.154730 3.294457 5.606559 -0.092714 2.061379 2.541739 0.086460 -6.255012 11.612922 22.803026 18.325234 0.000000 0.000000 0.000000 -6.596122 0.175466 -1.435355 2.538256 -0.349750 -3.192161 2.790539 2.215252 9.617213 0.000000 0.000000 0.000000 9.728942 -0.047640 -1.430940 -7.859905 2.897437 -17.589500 -2.052688 2.714858 27.149000 10.502739 -5.315201 -17.896175 0.000000 0.000000 0.000000 -19.647128 -10.704927 3.188378 -49.424676 -5.495232 -5.648413 -13.757628 -28.722742 4.604722 0.000000 0.000000 0.000000 26.485671 -1.711530 -0.576033 53.209978 14.296334 -1.992801 9.722590 23.559577 3.204607 0.000000 0.000000 0.000000 
0.000449 0.947049 0.000034 0.760059 5.670707 3.198480 5.656442 -0.100020 2.105888 2.457078 0.096132 -6.358656 11.289558 22.422436 18.203252 0.000000 0.000000 0.000000 -6.650119 0.151141 -1.109424 2.617669 -0.363933 -3.417544 2.614935 1.849450 9.772312 0.000000 0.000000 0.000000 9.297843 -0.030972 -1.528702 -6.741464 2.605006 -17.129625 -2.654843 2.422935 27.060271 10.385654 -5.397243 -17.068416 0.000000 0.000000 0.000000 -19.670208 -10.646158 3.133622 -49.669674 -5.424537 -5.690568 -13.883862 -28.900117 4.667086 0.000000 0.000000 0.000000 26.669283 -1.698184 -0.556136 52.700698 14.283344 -2.015449 9.677890 24.284191 3.314789 0.000000 0.000000 0.000000 
0.000409 0.947345 -0.000059 0.636544 5.826151 3.188862 5.814128 -0.119835 1.849048 2.448178 0.078094 -5.983659 11.224192 22.349519 18.109673 0.000000 0.000000 0.000000 -6.749089 0.158268 -1.327384 3.060361 -0.398700 -2.998725 2.570669 1.749176 9.835116 0.000000 0.000000 0.000000 9.296547 -0.032802 -1.526602 -6.882709 2.654297 -17.004291 -2.313788 2.183919 27.258765 10.414169 -5.422644 -17.228304 0.000000 0.000000 0.000000 -19.983658 -10.562354 3.132741 -49.375572 -5.519590 -5.651676 -13.707752 -29.452535 4.728581 0.000000 0.000000 0.000000 26.411601 -1.659302 -0.576336 52.870690 14.494708 -1.917742 9.501943 24.235072 3.264479 0.000000 0.000000 0.000000 
